# xmcd CD database file
#
# Track frame offsets:
#	150
#	12670
#	26319
#	44059
#	54391
#	72474
#	86617
#	102636
#	119582
#	129538
#
# Disc length: 1863 seconds
#
# Revision: 0
# Processed by: cddbd v1.5.1PL2 Copyright (c) Steve Scherf et al.
# Submitted via: CDex 1.51
#
DISCID=9107450a
DTITLE=Mike Hays - It's Over Again
DYEAR=1900
DGENRE=Country
TTITLE0=Settling for What They Get
TTITLE1=Tonight (w/ Heather Myles)
TTITLE2=Madison Moonshine
TTITLE3=I Do My Cryin' At Night
TTITLE4=He Ain't Even Cold Yet
TTITLE5=Jackson (w/ Elena Skye)
TTITLE6=Long Legs and Longnecks
TTITLE7=Cold Coffee Morning
TTITLE8=Your Cheatin' Heart's Gonna Miss Me
TTITLE9=It's Over Again
EXTD=
EXTT0=
EXTT1=
EXTT2=
EXTT3=
EXTT4=
EXTT5=
EXTT6=
EXTT7=
EXTT8=
EXTT9=
PLAYORDER=
